<?xml version="1.0" encoding="utf-8"?>
<!-- Generator: Adobe Illustrator 17.0.2, SVG Export Plug-In . SVG Version: 6.00 Build 0)  -->
<!DOCTYPE svg PUBLIC "-//W3C//DTD SVG 1.1//EN" "http://www.w3.org/Graphics/SVG/1.1/DTD/svg11.dtd">
<svg version="1.1" id="Layer_1" xmlns="http://www.w3.org/2000/svg" xmlns:xlink="http://www.w3.org/1999/xlink" x="0px" y="0px"
	 width="112px" height="102.667px" viewBox="0 0 112 102.667" enable-background="new 0 0 112 102.667" xml:space="preserve">
<path fill="#FFFFFF" d="M42,14c0-7.732,6.268-14,14-14s14,6.268,14,14s-6.268,14-14,14S42,21.731,42,14z M93.334,37.333
	c7.73,0,14-6.268,14-14s-6.27-14-14-14c-7.732,0-14,6.268-14,14S85.602,37.333,93.334,37.333z M18.667,37.333
	c7.731,0,14-6.268,14-14s-6.269-14-14-14s-14,6.268-14,14S10.936,37.333,18.667,37.333z M112,51.333c0,0,0,11.858,0,18.667
	c0,14.066-11.676,26.303-28.91,32.668h-3.756c-2.27-8.457-7.215-12.385-13.529-14.043c-2.922,1.568-6.258,2.459-9.805,2.459
	c-3.542,0-6.883-0.891-9.805-2.459c-6.314,1.658-11.262,5.592-13.529,14.043H28.91C11.676,96.302,0,84.066,0,70
	c0-6.809,0-18.667,0-18.667c1.814-6.762,5.771-9.907,10.822-11.231c2.338,1.255,5.007,1.969,7.84,1.969
	c2.837,0,5.506-0.719,7.845-1.969c0,0,9.66,0.877,10.827,6.566V42c1.814-6.762,5.771-9.907,10.831-11.232
	c2.338,1.255,5.007,1.969,7.84,1.969c2.837,0,5.507-0.719,7.845-1.969C68.898,32.093,72.855,35.24,74.672,42v4.667
	c1.824-5.689,10.821-6.566,10.821-6.566c2.339,1.255,5.007,1.969,7.841,1.969c2.837,0,5.506-0.719,7.844-1.969
	C106.229,41.426,110.186,44.571,112,51.333z M70,70c0-7.732-6.268-14-14-14s-14,6.268-14,14s6.268,14,14,14S70,77.732,70,70z"/>
</svg>
