<?xml version="1.0" encoding="iso-8859-1"?>
<!-- Generator: Adobe Illustrator 17.0.2, SVG Export Plug-In . SVG Version: 6.00 Build 0)  -->
<!DOCTYPE svg PUBLIC "-//W3C//DTD SVG 1.1//EN" "http://www.w3.org/Graphics/SVG/1.1/DTD/svg11.dtd">
<svg version="1.1" id="Layer_1" xmlns="http://www.w3.org/2000/svg" xmlns:xlink="http://www.w3.org/1999/xlink" x="0px" y="0px"
	 width="84.17px" height="18.375px" viewBox="0 0 84.17 18.375" style="enable-background:new 0 0 84.17 18.375;"
	 xml:space="preserve">
<g>
	<path style="fill:#FFFFFF;" d="M3.381,11.776v6.397H0V0h5.919c1.215,0,2.267,0.143,3.155,0.427
		c0.888,0.285,1.621,0.683,2.199,1.194c0.578,0.511,1.006,1.123,1.282,1.835c0.276,0.712,0.415,1.492,0.415,2.338
		c0,0.88-0.147,1.687-0.44,2.419c-0.293,0.733-0.733,1.364-1.319,1.892c-0.587,0.528-1.32,0.938-2.2,1.231
		c-0.879,0.293-1.91,0.44-3.092,0.44H3.381z M3.381,9.137h2.538c0.62,0,1.161-0.078,1.622-0.232c0.46-0.155,0.842-0.377,1.144-0.667
		s0.527-0.641,0.679-1.056c0.15-0.415,0.226-0.877,0.226-1.389c0-0.486-0.075-0.926-0.226-1.32C9.212,4.081,8.986,3.745,8.685,3.469
		S8.001,2.981,7.541,2.834c-0.461-0.146-1.002-0.22-1.622-0.22H3.381V9.137z"/>
	<path style="fill:#FFFFFF;" d="M24.897,18.174h-1.395c-0.294,0-0.524-0.044-0.691-0.132c-0.168-0.088-0.294-0.266-0.377-0.534
		l-0.277-0.917c-0.326,0.293-0.646,0.551-0.961,0.773s-0.639,0.408-0.975,0.559c-0.335,0.151-0.69,0.264-1.067,0.339
		c-0.378,0.076-0.797,0.113-1.258,0.113c-0.544,0-1.047-0.074-1.508-0.221s-0.856-0.368-1.188-0.662
		c-0.331-0.294-0.589-0.66-0.773-1.097c-0.184-0.437-0.276-0.946-0.276-1.526c0-0.487,0.128-0.969,0.384-1.444
		c0.255-0.475,0.681-0.903,1.275-1.286c0.595-0.382,1.387-0.7,2.376-0.952c0.988-0.252,2.216-0.378,3.682-0.378v-0.76
		c0-0.87-0.182-1.513-0.546-1.931c-0.365-0.418-0.895-0.627-1.59-0.627c-0.503,0-0.922,0.059-1.257,0.176
		c-0.336,0.118-0.627,0.25-0.874,0.396c-0.247,0.147-0.476,0.279-0.685,0.396c-0.21,0.117-0.44,0.176-0.691,0.176
		c-0.21,0-0.39-0.054-0.541-0.163c-0.15-0.109-0.272-0.243-0.364-0.402l-0.565-0.993c1.483-1.357,3.271-2.036,5.366-2.036
		c0.755,0,1.427,0.124,2.018,0.371s1.092,0.591,1.502,1.031s0.723,0.966,0.937,1.577c0.214,0.612,0.32,1.282,0.32,2.011V18.174z
		 M18.864,16.238c0.318,0,0.612-0.029,0.88-0.086c0.269-0.058,0.522-0.145,0.761-0.26c0.239-0.116,0.469-0.258,0.691-0.427
		c0.222-0.169,0.446-0.37,0.672-0.6v-2.159c-0.904,0-1.661,0.057-2.269,0.171s-1.096,0.26-1.464,0.437
		c-0.369,0.178-0.631,0.384-0.785,0.621c-0.155,0.236-0.232,0.494-0.232,0.772c0,0.549,0.161,0.941,0.483,1.177
		S18.345,16.238,18.864,16.238z"/>
	<path style="fill:#FFFFFF;" d="M27.952,18.174V5.279h1.822c0.318,0,0.54,0.059,0.666,0.176c0.126,0.118,0.209,0.318,0.251,0.604
		l0.188,1.558c0.461-0.796,1.001-1.424,1.622-1.885c0.619-0.46,1.314-0.691,2.086-0.691c0.637,0,1.164,0.146,1.584,0.439
		L35.77,7.805c-0.025,0.151-0.08,0.258-0.164,0.321c-0.083,0.062-0.196,0.094-0.339,0.094c-0.126,0-0.298-0.029-0.516-0.088
		s-0.507-0.088-0.867-0.088c-0.646,0-1.198,0.178-1.659,0.534c-0.461,0.356-0.851,0.878-1.169,1.565v8.031H27.952z"/>
	<path style="fill:#FFFFFF;" d="M43.549,5.078c0.813,0,1.561,0.13,2.244,0.39c0.683,0.26,1.271,0.639,1.766,1.137
		s0.88,1.11,1.156,1.835c0.276,0.725,0.415,1.552,0.415,2.482c0,0.235-0.011,0.43-0.031,0.584c-0.021,0.155-0.06,0.276-0.113,0.364
		c-0.055,0.088-0.128,0.151-0.22,0.188c-0.093,0.038-0.21,0.057-0.353,0.057h-7.968c0.092,1.324,0.447,2.296,1.068,2.916
		c0.619,0.62,1.44,0.93,2.463,0.93c0.503,0,0.937-0.059,1.301-0.176c0.364-0.117,0.683-0.247,0.955-0.39
		c0.272-0.142,0.512-0.272,0.717-0.39c0.205-0.117,0.404-0.176,0.597-0.176c0.126,0,0.234,0.025,0.327,0.076
		c0.092,0.05,0.172,0.122,0.238,0.213l0.905,1.131c-0.344,0.402-0.729,0.739-1.156,1.012s-0.874,0.49-1.339,0.653
		c-0.465,0.164-0.938,0.279-1.42,0.346c-0.482,0.067-0.949,0.101-1.401,0.101c-0.896,0-1.73-0.149-2.501-0.446
		c-0.771-0.297-1.441-0.737-2.011-1.319c-0.57-0.583-1.019-1.303-1.346-2.162c-0.326-0.858-0.489-1.854-0.489-2.985
		c0-0.88,0.142-1.707,0.427-2.482c0.285-0.775,0.693-1.449,1.226-2.023c0.532-0.574,1.182-1.028,1.948-1.364
		C41.721,5.245,42.586,5.078,43.549,5.078z M43.612,7.302c-0.905,0-1.613,0.255-2.124,0.767c-0.512,0.511-0.838,1.236-0.98,2.174
		h5.832c0-0.402-0.055-0.781-0.164-1.137c-0.108-0.356-0.276-0.668-0.502-0.937c-0.227-0.268-0.512-0.479-0.855-0.635
		C44.475,7.38,44.073,7.302,43.612,7.302z"/>
	<path style="fill:#FFFFFF;" d="M51.655,18.174V5.279h1.897c0.402,0,0.667,0.188,0.792,0.565l0.214,1.018
		c0.26-0.268,0.534-0.511,0.823-0.729s0.595-0.406,0.918-0.565c0.322-0.159,0.668-0.281,1.036-0.365
		c0.369-0.083,0.771-0.125,1.207-0.125c0.704,0,1.328,0.119,1.873,0.358c0.544,0.239,0.999,0.574,1.363,1.006
		s0.641,0.947,0.829,1.546s0.283,1.259,0.283,1.979v8.207h-3.104V9.967c0-0.788-0.183-1.397-0.547-1.829s-0.911-0.647-1.64-0.647
		c-0.537,0-1.039,0.122-1.509,0.364c-0.469,0.243-0.913,0.574-1.332,0.993v9.326H51.655z"/>
	<path style="fill:#FFFFFF;" d="M70.181,18.375c-1.114,0-1.973-0.316-2.576-0.949c-0.604-0.632-0.905-1.506-0.905-2.62V7.604h-1.307
		c-0.168,0-0.312-0.055-0.434-0.164c-0.122-0.109-0.183-0.272-0.183-0.49V5.719l2.074-0.339l0.653-3.52
		c0.033-0.167,0.111-0.297,0.232-0.39c0.121-0.092,0.274-0.138,0.459-0.138h1.608v4.06h3.394v2.212h-3.394v6.988
		c0,0.402,0.101,0.716,0.302,0.943c0.201,0.226,0.469,0.339,0.805,0.339c0.192,0,0.354-0.023,0.483-0.069
		c0.13-0.046,0.243-0.094,0.34-0.145c0.096-0.05,0.182-0.099,0.258-0.145c0.075-0.046,0.15-0.069,0.226-0.069
		c0.093,0,0.168,0.023,0.227,0.069s0.121,0.115,0.188,0.208l0.93,1.508c-0.452,0.377-0.972,0.662-1.559,0.855
		C71.417,18.278,70.81,18.375,70.181,18.375z"/>
	<path style="fill:#FFFFFF;" d="M83.327,7.792c-0.083,0.134-0.171,0.228-0.264,0.283c-0.092,0.055-0.209,0.082-0.352,0.082
		c-0.151,0-0.312-0.042-0.484-0.125c-0.172-0.084-0.37-0.178-0.597-0.283c-0.227-0.105-0.483-0.199-0.773-0.283
		c-0.289-0.083-0.63-0.125-1.023-0.125c-0.612,0-1.094,0.13-1.445,0.39c-0.353,0.26-0.528,0.599-0.528,1.018
		c0,0.276,0.09,0.509,0.271,0.698c0.18,0.188,0.419,0.354,0.716,0.496c0.298,0.143,0.635,0.271,1.012,0.383
		c0.377,0.113,0.763,0.237,1.156,0.371c0.395,0.134,0.779,0.287,1.156,0.458c0.378,0.172,0.715,0.39,1.012,0.654
		c0.298,0.264,0.536,0.58,0.717,0.949c0.18,0.369,0.271,0.813,0.271,1.332c0,0.621-0.113,1.192-0.34,1.716
		c-0.226,0.524-0.557,0.976-0.992,1.357c-0.437,0.381-0.975,0.679-1.615,0.892c-0.642,0.214-1.377,0.321-2.206,0.321
		c-0.444,0-0.878-0.04-1.301-0.12s-0.829-0.19-1.219-0.333c-0.39-0.142-0.75-0.31-1.081-0.502s-0.622-0.402-0.874-0.628l0.717-1.182
		c0.092-0.143,0.201-0.251,0.327-0.327c0.125-0.076,0.284-0.113,0.478-0.113c0.192,0,0.374,0.055,0.546,0.164
		s0.371,0.226,0.598,0.352c0.226,0.126,0.492,0.243,0.798,0.352s0.693,0.164,1.162,0.164c0.369,0,0.686-0.044,0.949-0.132
		c0.264-0.088,0.481-0.203,0.653-0.346s0.298-0.308,0.378-0.497c0.079-0.188,0.119-0.383,0.119-0.584
		c0-0.302-0.091-0.549-0.271-0.742c-0.181-0.192-0.419-0.36-0.717-0.502c-0.297-0.143-0.637-0.271-1.018-0.383
		c-0.382-0.113-0.771-0.237-1.169-0.371c-0.398-0.134-0.788-0.291-1.169-0.471s-0.721-0.408-1.018-0.685
		c-0.298-0.276-0.536-0.616-0.717-1.018c-0.181-0.402-0.271-0.888-0.271-1.458c0-0.528,0.105-1.03,0.314-1.508
		c0.21-0.478,0.518-0.895,0.924-1.25c0.406-0.356,0.913-0.641,1.521-0.855c0.607-0.213,1.31-0.32,2.105-0.32
		c0.888,0,1.697,0.146,2.426,0.44s1.336,0.679,1.822,1.156L83.327,7.792z"/>
</g>
</svg>
