<?xml version="1.0" encoding="utf-8"?>
<!-- Generator: Adobe Illustrator 17.0.2, SVG Export Plug-In . SVG Version: 6.00 Build 0)  -->
<!DOCTYPE svg PUBLIC "-//W3C//DTD SVG 1.1//EN" "http://www.w3.org/Graphics/SVG/1.1/DTD/svg11.dtd">
<svg version="1.1" id="Capa_1" xmlns="http://www.w3.org/2000/svg" xmlns:xlink="http://www.w3.org/1999/xlink" x="0px" y="0px"
	 width="27.27px" height="23.375px" viewBox="0 0 27.27 23.375" enable-background="new 0 0 27.27 23.375" xml:space="preserve">
<path fill="#FFFFFF" d="M25.322,0H1.949C0.869,0,0,0.871,0,1.951v19.477c0,1.074,0.869,1.947,1.949,1.947h23.373
	c1.07,0,1.947-0.873,1.947-1.947V1.951C27.27,0.871,26.393,0,25.322,0z M9.312,1.463c0.537,0,0.973,0.436,0.973,0.975
	c0,0.537-0.436,0.973-0.973,0.973c-0.539,0-0.975-0.436-0.975-0.973C8.338,1.898,8.773,1.463,9.312,1.463z M6.33,1.463
	c0.537,0,0.975,0.436,0.975,0.975c0,0.537-0.438,0.973-0.975,0.973c-0.539,0-0.975-0.436-0.975-0.973
	C5.355,1.898,5.791,1.463,6.33,1.463z M3.406,1.463c0.541,0,0.975,0.436,0.975,0.975c0,0.537-0.434,0.973-0.975,0.973
	c-0.535,0-0.971-0.436-0.971-0.973C2.436,1.898,2.871,1.463,3.406,1.463z M25.322,21.428H1.949V4.891h23.373
	C25.322,4.891,25.322,21.428,25.322,21.428z"/>
<path fill="#FFFFFF" d="M14.797,13.619l-8.953,4.594v-1.332l7.602-3.781v-0.039L5.844,9.279V7.947l8.953,4.572V13.619z"/>
<path fill="#FFFFFF" d="M21.422,12.387v1.232h-4.764v-1.232H21.422z"/>
</svg>
