<?xml version="1.0" encoding="iso-8859-1"?>
<!-- Generator: Adobe Illustrator 17.0.2, SVG Export Plug-In . SVG Version: 6.00 Build 0)  -->
<!DOCTYPE svg PUBLIC "-//W3C//DTD SVG 1.1//EN" "http://www.w3.org/Graphics/SVG/1.1/DTD/svg11.dtd">
<svg version="1.1" id="Layer_1" xmlns="http://www.w3.org/2000/svg" xmlns:xlink="http://www.w3.org/1999/xlink" x="0px" y="0px"
	 width="53.415px" height="18.689px" viewBox="0 0 53.415 18.689" style="enable-background:new 0 0 53.415 18.689;"
	 xml:space="preserve">
<g>
	<path style="fill:#FFFFFF;" d="M11.123,3.62c-0.092,0.185-0.199,0.314-0.321,0.39c-0.122,0.076-0.266,0.113-0.434,0.113
		s-0.356-0.065-0.565-0.195S9.346,3.653,9.062,3.494S8.444,3.19,8.062,3.061S7.231,2.866,6.711,2.866
		c-0.469,0-0.878,0.057-1.226,0.17c-0.348,0.113-0.641,0.27-0.88,0.471S4.189,3.949,4.072,4.229C3.955,4.51,3.896,4.818,3.896,5.153
		c0,0.427,0.12,0.783,0.358,1.068C4.493,6.506,4.809,6.75,5.203,6.951c0.394,0.201,0.842,0.381,1.345,0.54
		C7.051,7.65,7.564,7.82,8.087,8c0.524,0.18,1.037,0.39,1.54,0.628c0.502,0.239,0.951,0.541,1.345,0.905
		c0.394,0.365,0.71,0.811,0.949,1.338c0.239,0.528,0.358,1.169,0.358,1.923c0,0.821-0.141,1.59-0.421,2.306
		s-0.691,1.341-1.231,1.873c-0.541,0.532-1.2,0.951-1.979,1.257c-0.779,0.306-1.672,0.459-2.677,0.459
		c-0.578,0-1.148-0.057-1.709-0.17c-0.562-0.113-1.1-0.274-1.615-0.484c-0.515-0.209-0.997-0.46-1.445-0.754s-0.849-0.62-1.2-0.98
		l0.98-1.621c0.092-0.117,0.203-0.216,0.333-0.295s0.274-0.12,0.434-0.12c0.209,0,0.436,0.086,0.678,0.258
		c0.243,0.172,0.53,0.362,0.861,0.572c0.331,0.209,0.72,0.4,1.169,0.572c0.448,0.172,0.986,0.258,1.615,0.258
		c0.963,0,1.709-0.228,2.237-0.685c0.528-0.457,0.792-1.112,0.792-1.967c0-0.478-0.119-0.867-0.358-1.169s-0.555-0.555-0.949-0.76
		c-0.394-0.206-0.842-0.379-1.345-0.521c-0.502-0.143-1.014-0.297-1.533-0.465c-0.52-0.167-1.031-0.369-1.533-0.603
		C2.878,9.519,2.43,9.213,2.036,8.836c-0.394-0.377-0.71-0.849-0.949-1.414S0.729,6.159,0.729,5.329
		c0-0.662,0.132-1.307,0.396-1.936c0.264-0.628,0.649-1.186,1.156-1.671C2.788,1.236,3.41,0.847,4.147,0.553s1.579-0.44,2.526-0.44
		c1.072,0,2.061,0.167,2.966,0.503c0.905,0.335,1.676,0.804,2.312,1.407L11.123,3.62z"/>
	<path style="fill:#FFFFFF;" d="M18.928,18.689c-1.114,0-1.973-0.316-2.577-0.949c-0.603-0.632-0.905-1.506-0.905-2.62V7.918h-1.307
		c-0.167,0-0.312-0.055-0.434-0.164s-0.182-0.272-0.182-0.49V6.033l2.074-0.339l0.653-3.52c0.034-0.167,0.111-0.297,0.233-0.39
		c0.121-0.092,0.274-0.138,0.458-0.138h1.609v4.06h3.394v2.212h-3.394v6.988c0,0.402,0.101,0.716,0.302,0.943
		c0.201,0.226,0.469,0.339,0.804,0.339c0.193,0,0.354-0.023,0.484-0.069c0.13-0.046,0.243-0.094,0.339-0.145
		s0.182-0.099,0.258-0.145c0.075-0.046,0.151-0.069,0.226-0.069c0.092,0,0.167,0.023,0.226,0.069s0.122,0.115,0.188,0.208
		l0.93,1.508c-0.452,0.377-0.972,0.662-1.559,0.855C20.164,18.593,19.556,18.689,18.928,18.689z"/>
	<path style="fill:#FFFFFF;" d="M34.525,18.488H33.13c-0.293,0-0.524-0.044-0.691-0.132c-0.168-0.088-0.293-0.266-0.377-0.534
		l-0.277-0.917c-0.327,0.293-0.647,0.551-0.961,0.773c-0.314,0.222-0.639,0.408-0.974,0.559c-0.335,0.151-0.691,0.264-1.068,0.339
		c-0.377,0.076-0.796,0.113-1.257,0.113c-0.544,0-1.047-0.074-1.508-0.221c-0.461-0.147-0.857-0.368-1.188-0.662
		c-0.331-0.294-0.589-0.66-0.773-1.097c-0.184-0.437-0.276-0.946-0.276-1.526c0-0.487,0.127-0.969,0.383-1.444
		c0.255-0.475,0.681-0.903,1.276-1.286c0.595-0.382,1.386-0.7,2.375-0.952c0.988-0.252,2.216-0.378,3.682-0.378v-0.76
		c0-0.87-0.182-1.513-0.546-1.931c-0.365-0.418-0.895-0.627-1.59-0.627c-0.503,0-0.922,0.059-1.257,0.176
		c-0.335,0.118-0.626,0.25-0.874,0.396c-0.248,0.147-0.476,0.279-0.685,0.396s-0.44,0.176-0.691,0.176
		c-0.209,0-0.39-0.054-0.541-0.163s-0.272-0.243-0.364-0.402L24.382,7.39c1.483-1.357,3.272-2.036,5.367-2.036
		c0.754,0,1.427,0.124,2.018,0.371s1.091,0.591,1.502,1.031c0.41,0.44,0.723,0.966,0.936,1.577c0.214,0.612,0.321,1.282,0.321,2.011
		V18.488z M28.492,16.553c0.318,0,0.612-0.029,0.88-0.086c0.268-0.058,0.522-0.145,0.761-0.26c0.239-0.116,0.469-0.258,0.691-0.427
		c0.222-0.169,0.446-0.37,0.672-0.6v-2.159c-0.905,0-1.661,0.057-2.269,0.171s-1.096,0.26-1.464,0.437
		c-0.369,0.178-0.631,0.384-0.786,0.621c-0.155,0.236-0.232,0.494-0.232,0.772c0,0.549,0.161,0.941,0.484,1.177
		C27.552,16.435,27.973,16.553,28.492,16.553z"/>
	<path style="fill:#FFFFFF;" d="M38.132,18.488V7.931l-1.119-0.176c-0.243-0.042-0.438-0.125-0.584-0.251
		c-0.146-0.125-0.22-0.302-0.22-0.528v-1.27h1.923V4.751c0-0.737,0.111-1.399,0.333-1.986s0.541-1.085,0.956-1.496
		c0.415-0.411,0.919-0.725,1.514-0.942C41.53,0.109,42.2,0,42.946,0c0.595,0,1.148,0.08,1.659,0.239l-0.062,1.559
		c-0.017,0.243-0.13,0.394-0.339,0.453c-0.209,0.059-0.453,0.088-0.729,0.088c-0.369,0-0.698,0.04-0.987,0.119
		c-0.289,0.08-0.534,0.218-0.735,0.415c-0.201,0.197-0.354,0.457-0.458,0.779c-0.105,0.323-0.157,0.723-0.157,1.2v0.854h3.356v2.212
		h-3.255v10.57H38.132z"/>
	<path style="fill:#FFFFFF;" d="M46.942,18.488V7.931l-1.119-0.176c-0.243-0.042-0.438-0.125-0.584-0.251
		c-0.146-0.125-0.22-0.302-0.22-0.528v-1.27h1.923V4.751c0-0.737,0.111-1.399,0.333-1.986s0.541-1.085,0.956-1.496
		c0.415-0.411,0.919-0.725,1.514-0.942C50.34,0.109,51.01,0,51.756,0c0.595,0,1.148,0.08,1.659,0.239l-0.062,1.559
		c-0.017,0.243-0.13,0.394-0.339,0.453c-0.209,0.059-0.453,0.088-0.729,0.088c-0.369,0-0.698,0.04-0.987,0.119
		c-0.289,0.08-0.534,0.218-0.735,0.415c-0.201,0.197-0.354,0.457-0.458,0.779c-0.105,0.323-0.157,0.723-0.157,1.2v0.854h3.356v2.212
		h-3.255v10.57H46.942z"/>
</g>
</svg>
