<?xml version="1.0" encoding="iso-8859-1"?>
<!-- Generator: Adobe Illustrator 17.0.2, SVG Export Plug-In . SVG Version: 6.00 Build 0)  -->
<!DOCTYPE svg PUBLIC "-//W3C//DTD SVG 1.1//EN" "http://www.w3.org/Graphics/SVG/1.1/DTD/svg11.dtd">
<svg version="1.1" id="Layer_1" xmlns="http://www.w3.org/2000/svg" xmlns:xlink="http://www.w3.org/1999/xlink" x="0px" y="0px"
	 width="98.988px" height="18.878px" viewBox="0 0 98.988 18.878" style="enable-background:new 0 0 98.988 18.878;"
	 xml:space="preserve">
<g>
	<path style="fill:#FFFFFF;" d="M11.123,3.808c-0.092,0.185-0.199,0.314-0.321,0.39c-0.122,0.076-0.266,0.113-0.434,0.113
		s-0.356-0.065-0.565-0.195S9.346,3.842,9.062,3.683S8.444,3.379,8.062,3.249S7.231,3.054,6.711,3.054
		c-0.469,0-0.878,0.057-1.226,0.17c-0.348,0.113-0.641,0.27-0.88,0.471S4.189,4.137,4.072,4.418
		C3.955,4.699,3.896,5.007,3.896,5.342c0,0.427,0.12,0.783,0.358,1.068c0.239,0.285,0.555,0.528,0.949,0.729
		c0.394,0.201,0.842,0.381,1.345,0.54c0.503,0.16,1.016,0.329,1.54,0.509c0.524,0.18,1.037,0.39,1.54,0.628
		c0.502,0.239,0.951,0.541,1.345,0.905c0.394,0.365,0.71,0.811,0.949,1.338c0.239,0.528,0.358,1.169,0.358,1.923
		c0,0.821-0.141,1.59-0.421,2.306s-0.691,1.341-1.231,1.873c-0.541,0.532-1.2,0.951-1.979,1.257
		c-0.779,0.306-1.672,0.459-2.677,0.459c-0.578,0-1.148-0.057-1.709-0.17c-0.562-0.113-1.1-0.274-1.615-0.484
		C2.13,18.015,1.648,17.764,1.2,17.47S0.352,16.85,0,16.49l0.98-1.621c0.092-0.117,0.203-0.216,0.333-0.295s0.274-0.12,0.434-0.12
		c0.209,0,0.436,0.086,0.678,0.258c0.243,0.172,0.53,0.362,0.861,0.572c0.331,0.209,0.72,0.4,1.169,0.572
		c0.448,0.172,0.986,0.258,1.615,0.258c0.963,0,1.709-0.228,2.237-0.685c0.528-0.457,0.792-1.112,0.792-1.967
		c0-0.478-0.119-0.867-0.358-1.169s-0.555-0.555-0.949-0.76c-0.394-0.206-0.842-0.379-1.345-0.521
		c-0.502-0.143-1.014-0.297-1.533-0.465c-0.52-0.167-1.031-0.369-1.533-0.603C2.878,9.707,2.43,9.401,2.036,9.024
		C1.642,8.647,1.326,8.176,1.087,7.61S0.729,6.347,0.729,5.518c0-0.662,0.132-1.307,0.396-1.936
		c0.264-0.628,0.649-1.186,1.156-1.671C2.788,1.425,3.41,1.035,4.147,0.742s1.579-0.44,2.526-0.44c1.072,0,2.061,0.167,2.966,0.503
		c0.905,0.335,1.676,0.804,2.312,1.407L11.123,3.808z"/>
	<path style="fill:#FFFFFF;" d="M18.928,18.878c-1.114,0-1.973-0.316-2.577-0.949c-0.603-0.632-0.905-1.506-0.905-2.62V8.107h-1.307
		c-0.167,0-0.312-0.055-0.434-0.164s-0.182-0.272-0.182-0.49V6.222l2.074-0.339l0.653-3.52c0.034-0.167,0.111-0.297,0.233-0.39
		c0.121-0.092,0.274-0.138,0.458-0.138h1.609v4.06h3.394v2.212h-3.394v6.988c0,0.402,0.101,0.716,0.302,0.943
		c0.201,0.226,0.469,0.339,0.804,0.339c0.193,0,0.354-0.023,0.484-0.069c0.13-0.046,0.243-0.094,0.339-0.145
		s0.182-0.099,0.258-0.145c0.075-0.046,0.151-0.069,0.226-0.069c0.092,0,0.167,0.023,0.226,0.069s0.122,0.115,0.188,0.208
		l0.93,1.508c-0.452,0.377-0.972,0.662-1.559,0.855C20.164,18.781,19.556,18.878,18.928,18.878z"/>
	<path style="fill:#FFFFFF;" d="M27.261,5.782v8.194c0,0.788,0.182,1.397,0.547,1.829c0.364,0.432,0.911,0.647,1.64,0.647
		c0.536,0,1.039-0.12,1.508-0.358c0.469-0.239,0.913-0.567,1.332-0.986V5.782h3.104v12.895h-1.898c-0.402,0-0.666-0.188-0.792-0.565
		l-0.213-1.031c-0.269,0.268-0.545,0.513-0.83,0.735c-0.285,0.222-0.589,0.411-0.911,0.565c-0.323,0.155-0.67,0.276-1.043,0.365
		c-0.373,0.088-0.773,0.132-1.2,0.132c-0.704,0-1.326-0.12-1.866-0.358s-0.995-0.576-1.364-1.012
		c-0.369-0.436-0.647-0.953-0.836-1.552c-0.188-0.599-0.283-1.259-0.283-1.979V5.782H27.261z"/>
	<path style="fill:#FFFFFF;" d="M47.785,18.677c-0.402,0-0.666-0.188-0.792-0.565l-0.251-1.245
		c-0.269,0.302-0.549,0.574-0.842,0.817c-0.293,0.243-0.609,0.452-0.949,0.628c-0.339,0.176-0.704,0.312-1.094,0.408
		s-0.811,0.145-1.263,0.145c-0.704,0-1.349-0.146-1.936-0.44c-0.586-0.293-1.091-0.718-1.514-1.275
		c-0.423-0.557-0.75-1.247-0.98-2.068c-0.23-0.821-0.346-1.759-0.346-2.815c0-0.956,0.13-1.843,0.39-2.665s0.633-1.534,1.119-2.137
		c0.486-0.604,1.068-1.075,1.747-1.414s1.441-0.509,2.288-0.509c0.72,0,1.336,0.115,1.847,0.345c0.511,0.231,0.968,0.539,1.37,0.924
		V0h3.104v18.677H47.785z M43.65,16.402c0.645,0,1.194-0.134,1.646-0.402c0.452-0.268,0.879-0.649,1.282-1.144V9.075
		c-0.352-0.428-0.735-0.729-1.15-0.905c-0.415-0.176-0.861-0.264-1.339-0.264c-0.469,0-0.895,0.088-1.275,0.264
		c-0.381,0.176-0.704,0.442-0.968,0.798c-0.264,0.356-0.467,0.809-0.61,1.357s-0.213,1.196-0.213,1.942
		c0,0.754,0.061,1.393,0.182,1.917c0.122,0.524,0.295,0.951,0.521,1.282c0.227,0.331,0.503,0.57,0.83,0.717
		S43.248,16.402,43.65,16.402z"/>
	<path style="fill:#FFFFFF;" d="M58.367,5.581c0.813,0,1.561,0.13,2.244,0.39c0.683,0.26,1.271,0.639,1.766,1.137
		s0.88,1.11,1.156,1.835c0.276,0.725,0.415,1.552,0.415,2.482c0,0.235-0.011,0.43-0.031,0.584c-0.021,0.155-0.06,0.276-0.113,0.364
		c-0.055,0.088-0.128,0.151-0.22,0.188c-0.093,0.038-0.21,0.057-0.353,0.057h-7.968c0.092,1.324,0.447,2.296,1.068,2.916
		c0.619,0.62,1.44,0.93,2.463,0.93c0.503,0,0.937-0.059,1.301-0.176c0.364-0.117,0.683-0.247,0.955-0.39
		c0.272-0.142,0.512-0.272,0.717-0.39c0.205-0.117,0.404-0.176,0.597-0.176c0.126,0,0.234,0.025,0.327,0.076
		c0.092,0.05,0.172,0.122,0.238,0.213l0.905,1.131c-0.344,0.402-0.729,0.739-1.156,1.012s-0.874,0.49-1.339,0.653
		c-0.465,0.164-0.938,0.279-1.42,0.346c-0.482,0.067-0.949,0.101-1.401,0.101c-0.896,0-1.73-0.149-2.501-0.446
		c-0.771-0.297-1.441-0.737-2.011-1.319c-0.57-0.583-1.019-1.303-1.346-2.162c-0.326-0.858-0.489-1.854-0.489-2.985
		c0-0.88,0.142-1.707,0.427-2.482c0.285-0.775,0.693-1.449,1.226-2.023c0.532-0.574,1.182-1.028,1.948-1.364
		C56.539,5.748,57.404,5.581,58.367,5.581z M58.43,7.805c-0.905,0-1.613,0.255-2.124,0.767c-0.512,0.511-0.838,1.236-0.98,2.174
		h5.832c0-0.402-0.055-0.781-0.164-1.137c-0.108-0.356-0.276-0.668-0.502-0.937c-0.227-0.268-0.512-0.479-0.855-0.635
		C59.292,7.883,58.891,7.805,58.43,7.805z"/>
	<path style="fill:#FFFFFF;" d="M66.474,18.677V5.782h1.897c0.402,0,0.666,0.188,0.792,0.565l0.214,1.018
		c0.259-0.268,0.534-0.511,0.823-0.729s0.595-0.406,0.917-0.565s0.668-0.281,1.037-0.365c0.368-0.083,0.771-0.125,1.206-0.125
		c0.704,0,1.328,0.119,1.873,0.358s0.999,0.574,1.363,1.006c0.365,0.432,0.642,0.947,0.83,1.546s0.282,1.259,0.282,1.979v8.207
		h-3.104V10.47c0-0.788-0.183-1.397-0.547-1.829c-0.365-0.432-0.911-0.647-1.641-0.647c-0.536,0-1.039,0.122-1.508,0.364
		c-0.47,0.243-0.914,0.574-1.333,0.993v9.326H66.474z"/>
	<path style="fill:#FFFFFF;" d="M85,18.878c-1.114,0-1.974-0.316-2.577-0.949c-0.603-0.632-0.904-1.506-0.904-2.62V8.107H80.21
		c-0.167,0-0.312-0.055-0.434-0.164c-0.121-0.109-0.182-0.272-0.182-0.49V6.222l2.073-0.339l0.653-3.52
		c0.034-0.167,0.111-0.297,0.233-0.39c0.121-0.092,0.274-0.138,0.458-0.138h1.609v4.06h3.394v2.212h-3.394v6.988
		c0,0.402,0.101,0.716,0.302,0.943c0.201,0.226,0.469,0.339,0.804,0.339c0.193,0,0.354-0.023,0.484-0.069
		c0.13-0.046,0.243-0.094,0.339-0.145c0.097-0.05,0.183-0.099,0.258-0.145s0.151-0.069,0.227-0.069c0.092,0,0.167,0.023,0.226,0.069
		s0.122,0.115,0.188,0.208l0.931,1.508c-0.452,0.377-0.973,0.662-1.559,0.855C86.235,18.781,85.627,18.878,85,18.878z"/>
	<path style="fill:#FFFFFF;" d="M98.145,8.295c-0.083,0.134-0.171,0.228-0.264,0.283C97.79,8.633,97.672,8.66,97.53,8.66
		c-0.151,0-0.312-0.042-0.484-0.125c-0.172-0.084-0.37-0.178-0.597-0.283c-0.227-0.105-0.483-0.199-0.773-0.283
		c-0.289-0.083-0.63-0.125-1.023-0.125c-0.612,0-1.094,0.13-1.445,0.39c-0.353,0.26-0.528,0.599-0.528,1.018
		c0,0.276,0.09,0.509,0.271,0.698c0.18,0.188,0.419,0.354,0.716,0.496c0.298,0.143,0.635,0.271,1.012,0.383
		c0.377,0.113,0.763,0.237,1.156,0.371c0.395,0.134,0.779,0.287,1.156,0.458c0.378,0.172,0.715,0.39,1.012,0.654
		c0.298,0.264,0.536,0.58,0.717,0.949c0.18,0.369,0.271,0.813,0.271,1.332c0,0.621-0.113,1.192-0.34,1.716
		c-0.226,0.524-0.557,0.976-0.992,1.357c-0.437,0.381-0.975,0.679-1.615,0.892c-0.642,0.214-1.377,0.321-2.206,0.321
		c-0.444,0-0.878-0.04-1.301-0.12s-0.829-0.19-1.219-0.333c-0.39-0.142-0.75-0.31-1.081-0.502s-0.622-0.402-0.874-0.628l0.717-1.182
		c0.092-0.143,0.201-0.251,0.327-0.327c0.125-0.076,0.284-0.113,0.478-0.113c0.192,0,0.374,0.055,0.546,0.164
		s0.371,0.226,0.598,0.352c0.226,0.126,0.492,0.243,0.798,0.352s0.693,0.164,1.162,0.164c0.369,0,0.686-0.044,0.949-0.132
		c0.264-0.088,0.481-0.203,0.653-0.346s0.298-0.308,0.378-0.497c0.079-0.188,0.119-0.383,0.119-0.584
		c0-0.302-0.091-0.549-0.271-0.742c-0.181-0.192-0.419-0.36-0.717-0.502c-0.297-0.143-0.637-0.271-1.018-0.383
		c-0.382-0.113-0.771-0.237-1.169-0.371c-0.398-0.134-0.788-0.291-1.169-0.471s-0.721-0.408-1.018-0.685
		c-0.298-0.276-0.536-0.616-0.717-1.018c-0.181-0.402-0.271-0.888-0.271-1.458c0-0.528,0.105-1.03,0.314-1.508
		c0.21-0.478,0.518-0.895,0.924-1.25c0.406-0.356,0.913-0.641,1.521-0.855c0.607-0.213,1.31-0.32,2.105-0.32
		c0.888,0,1.697,0.146,2.426,0.44s1.336,0.679,1.822,1.156L98.145,8.295z"/>
</g>
</svg>
