<?xml version="1.0" encoding="utf-8"?>
<!-- Generator: Adobe Illustrator 17.0.2, SVG Export Plug-In . SVG Version: 6.00 Build 0)  -->
<!DOCTYPE svg PUBLIC "-//W3C//DTD SVG 1.1//EN" "http://www.w3.org/Graphics/SVG/1.1/DTD/svg11.dtd">
<svg version="1.1" id="Layer_1" xmlns="http://www.w3.org/2000/svg" xmlns:xlink="http://www.w3.org/1999/xlink" x="0px" y="0px"
	 width="800px" height="800px" viewBox="0 0 800 800" enable-background="new 0 0 800 800" xml:space="preserve">
<g>
	<path fill="#FFFFFF" d="M661.841,601.02v-26.438h-19.828h-1.653v-8.805v-13.222V552l-32.643-61.14h34.296v-35.566l-86.271-105.443
		H251.379L172.89,473.54c-13.428,10.906-22.198,27.352-22.198,45.968c0,32.61,26.374,59.104,58.906,59.438
		c-21.888,8.776-37.425,30.135-37.425,55.125c0,18.15,8.339,34.234,21.197,45.156c-30.32,2.688-54.246,27.938-54.246,58.946
		c0,32.815,26.684,59.487,59.488,59.487h13.22H574.81h26.439h27.543v-26.438h-27.543v-66.099h27.543v-11.568h13.221h19.828v-26.438
		h-19.828V601.02H661.841z M177.129,519.508c0-12.313,6.854-22.965,16.885-28.646h394.015v61.692h-377.85
		C191.957,552.557,177.129,537.737,177.129,519.508z M574.81,771.222H211.833h-13.22c-18.223,0-33.049-14.817-33.049-33.049
		c0-18.218,14.826-33.049,33.049-33.049h13.22h362.978L574.81,771.222L574.81,771.222z M615.573,667.118H244.879h-13.221
		c-18.221,0-33.047-14.82-33.047-33.049c0-18.218,14.826-33.051,33.047-33.051h13.221h370.693L615.573,667.118L615.573,667.118z"/>
	<path fill="#FFFFFF" d="M569.763,172.684c-12.438,0-35.12-2.26-35.12-6.186c0-90.653-73.494-164.158-164.15-164.158
		c-75.84,0-139.477,51.508-158.318,121.389C153.217,143.17,110.61,198.618,110.61,264.083c0,43.856,45.931,97.883,74.165,126.952
		l44.804-70.602H574.54l59.463,72.681c33.267-21.25,55.389-58.402,55.389-100.797C689.39,226.244,635.827,172.684,569.763,172.684z"
		/>
</g>
</svg>
