<?xml version="1.0" encoding="iso-8859-1"?>
<!-- Generator: Adobe Illustrator 17.0.2, SVG Export Plug-In . SVG Version: 6.00 Build 0)  -->
<!DOCTYPE svg PUBLIC "-//W3C//DTD SVG 1.1//EN" "http://www.w3.org/Graphics/SVG/1.1/DTD/svg11.dtd">
<svg version="1.1" id="Layer_1" xmlns="http://www.w3.org/2000/svg" xmlns:xlink="http://www.w3.org/1999/xlink" x="0px" y="0px"
	 width="638.356px" height="60.146px" viewBox="0 0 638.356 60.146" style="enable-background:new 0 0 638.356 60.146;"
	 xml:space="preserve">
<g>
	<path style="fill:#FFFFFF;" d="M0.915,4.087c5.205-0.244,9.068-0.366,11.59-0.366c2.521,0,4.402,0.052,5.643,0.153
		c1.24,0.102,2.654,0.315,4.24,0.64c1.586,0.326,2.999,0.763,4.239,1.312c1.24,0.549,2.491,1.333,3.751,2.349
		c1.26,1.017,2.318,2.196,3.172,3.538c1.87,3.091,2.806,7.076,2.806,11.956c0,7.361-2.034,12.84-6.1,16.439
		c-4.067,3.599-9.618,5.398-16.653,5.398H0.915C0.305,45.506,0,45.201,0,44.591v-2.989c0-0.61,0.305-0.915,0.915-0.915h3.172V9.028
		H0.915C0.305,9.028,0,8.723,0,8.113V5.002C0,4.392,0.305,4.087,0.915,4.087z M25.346,36.356c2.46-2.928,3.69-6.933,3.69-12.017
		c0-5.083-1.149-8.946-3.447-11.59c-2.298-2.643-5.886-3.965-10.766-3.965h-3.904v31.964h4.026
		C19.418,40.748,22.885,39.284,25.346,36.356z"/>
	<path style="fill:#FFFFFF;" d="M51.544,40.687h3.843c0.61,0,0.915,0.305,0.915,0.915v2.989c0,0.61-0.305,0.915-0.915,0.915H40.869
		c-0.61,0-0.915-0.305-0.915-0.915v-2.989c0-0.61,0.305-0.915,0.915-0.915h3.843V20.313h-3.294c-0.61,0-0.915-0.305-0.915-0.915
		v-3.172c0-0.61,0.305-0.915,0.915-0.915h9.211c0.61,0,0.915,0.305,0.915,0.915V40.687z M44.163,9.882
		c-0.773-0.813-1.159-1.85-1.159-3.111c0-1.26,0.396-2.308,1.189-3.142c0.793-0.833,1.85-1.25,3.172-1.25
		c1.321,0,2.379,0.417,3.172,1.25c0.793,0.834,1.189,1.881,1.189,3.142c0,1.261-0.407,2.298-1.22,3.111
		c-0.814,0.814-1.881,1.22-3.202,1.22C45.982,11.102,44.935,10.696,44.163,9.882z"/>
	<path style="fill:#FFFFFF;" d="M86.801,20.313v21.655c0,2.603-0.102,5.022-0.305,7.259c-0.326,3.456-1.596,6.14-3.812,8.052
		c-2.217,1.911-5.357,2.867-9.424,2.867c-4.067,0-7.483-0.61-10.248-1.83c-0.488-0.204-0.651-0.61-0.488-1.22l1.098-3.233
		c0.162-0.57,0.569-0.732,1.22-0.488c2.48,1.016,4.991,1.525,7.533,1.525c2.541,0,4.443-0.61,5.703-1.83
		c1.26-1.22,1.891-3.376,1.891-6.466v-4.758c-1.789,2.928-4.676,4.392-8.661,4.392c-3.986,0-7.025-1.281-9.12-3.843
		c-2.095-2.562-3.142-6.456-3.142-11.682c0-5.225,1.23-9.211,3.691-11.956c2.46-2.745,5.551-4.118,9.272-4.118
		c3.721,0,6.719,1.322,8.996,3.965l0.611-2.379c0.203-0.61,0.568-0.915,1.098-0.915h7.441c0.611,0,0.916,0.305,0.916,0.915v3.172
		c0,0.61-0.305,0.915-0.916,0.915H86.801z M79.969,34.099V23.241c-0.162-0.244-0.416-0.549-0.762-0.915
		c-0.346-0.366-1.098-0.843-2.258-1.433c-1.158-0.589-2.408-0.885-3.75-0.885c-2.157,0-3.905,0.804-5.247,2.41
		c-1.342,1.607-2.013,4.178-2.013,7.716s0.488,6.232,1.464,8.083c0.976,1.851,2.867,2.775,5.672,2.775
		c1.789,0,3.387-0.63,4.789-1.891C79.268,37.841,79.969,36.173,79.969,34.099z"/>
	<path style="fill:#FFFFFF;" d="M104.248,40.687h3.843c0.609,0,0.915,0.305,0.915,0.915v2.989c0,0.61-0.306,0.915-0.915,0.915
		H93.572c-0.609,0-0.915-0.305-0.915-0.915v-2.989c0-0.61,0.306-0.915,0.915-0.915h3.844V20.313h-3.294
		c-0.61,0-0.915-0.305-0.915-0.915v-3.172c0-0.61,0.305-0.915,0.915-0.915h9.211c0.609,0,0.915,0.305,0.915,0.915V40.687z
		 M96.866,9.882c-0.772-0.813-1.158-1.85-1.158-3.111c0-1.26,0.396-2.308,1.189-3.142c0.793-0.833,1.85-1.25,3.172-1.25
		c1.321,0,2.379,0.417,3.172,1.25c0.793,0.834,1.189,1.881,1.189,3.142c0,1.261-0.407,2.298-1.22,3.111
		c-0.814,0.814-1.882,1.22-3.203,1.22S97.639,10.696,96.866,9.882z"/>
	<path style="fill:#FFFFFF;" d="M121.753,20.313v15.372c0,1.912,0.244,3.294,0.732,4.148s1.403,1.281,2.745,1.281
		s2.643-0.284,3.903-0.854c0.447-0.162,0.772,0,0.977,0.488l1.098,2.806c0.04,0.122,0.062,0.295,0.062,0.519
		c0,0.224-0.204,0.458-0.61,0.702c-1.952,0.976-4.27,1.464-6.954,1.464c-3.62,0-5.999-0.935-7.137-2.806
		c-0.814-1.22-1.281-2.399-1.403-3.538c-0.163-1.545-0.244-3.172-0.244-4.88V20.313h-3.477c-0.61,0-0.915-0.305-0.915-0.915v-3.172
		c0-0.61,0.305-0.915,0.915-0.915h3.477V7.076c0-0.61,0.306-0.915,0.915-0.915h5.002c0.61,0,0.915,0.305,0.915,0.915v8.235h6.161
		c0.61,0,0.915,0.305,0.915,0.915v3.172c0,0.61-0.305,0.915-0.915,0.915H121.753z"/>
	<path style="fill:#FFFFFF;" d="M151.521,27.389v-2.135c0-2.887-0.813-4.697-2.439-5.429c-0.773-0.325-1.892-0.488-3.355-0.488
		c-2.766,0-4.433,1.302-5.002,3.904c-0.122,0.61-0.427,0.915-0.915,0.915h-3.904c-0.65,0-0.936-0.305-0.854-0.915
		c0.162-2.968,1.362-5.144,3.599-6.527c2.236-1.382,5.083-2.074,8.54-2.074c7.279,0,10.919,3.335,10.919,10.004v16.043h2.623
		c0.61,0,0.915,0.305,0.915,0.915v2.989c0,0.61-0.305,0.915-0.915,0.915h-7.197c-0.529,0-0.834-0.305-0.915-0.915l-0.428-2.806
		c-2.195,2.969-5.368,4.453-9.516,4.453c-2.604,0-4.758-0.682-6.466-2.043s-2.562-3.547-2.562-6.558
		c0-3.944,1.647-6.649,4.941-8.113c2.724-1.26,5.978-1.952,9.76-2.074C149.122,27.45,150.18,27.43,151.521,27.389z M151.644,36.295
		v-4.697c-3.904,0-6.304,0.183-7.198,0.549c-0.895,0.366-1.688,0.732-2.379,1.098c-1.302,0.692-1.952,1.952-1.952,3.782
		c0,2.806,1.606,4.209,4.819,4.209c2.114,0,3.761-0.498,4.941-1.495C151.054,38.745,151.644,37.597,151.644,36.295z"/>
	<path style="fill:#FFFFFF;" d="M176.043,0.915v39.772h3.843c0.609,0,0.915,0.305,0.915,0.915v2.989c0,0.61-0.306,0.915-0.915,0.915
		h-14.519c-0.609,0-0.915-0.305-0.915-0.915v-2.989c0-0.61,0.306-0.915,0.915-0.915h3.844V5.002h-3.294
		c-0.61,0-0.915-0.305-0.915-0.915V0.915c0-0.61,0.305-0.915,0.915-0.915h9.211C175.737,0,176.043,0.305,176.043,0.915z"/>
	<path style="fill:#FFFFFF;" d="M220.205,45.506h-16.958c-0.609,0-0.915-0.305-0.915-0.915v-2.989c0-0.61,0.306-0.915,0.915-0.915
		h5.002V8.967h-8.234l0.305,4.758c0.04,0.61-0.244,0.915-0.854,0.915h-3.722c-0.609,0-0.915-0.305-0.915-0.915V5.002
		c0-0.61,0.306-0.915,0.915-0.915h31.903c0.61,0,0.915,0.305,0.915,0.915v8.723c0,0.61-0.305,0.915-0.915,0.915h-3.721
		c-0.61,0-0.896-0.305-0.854-0.915l0.305-4.758h-8.234v31.72h5.062c0.61,0,0.915,0.305,0.915,0.915v2.989
		C221.12,45.201,220.815,45.506,220.205,45.506z"/>
	<path style="fill:#FFFFFF;" d="M245.947,46.238c-4.84,0-8.388-1.413-10.645-4.239c-2.257-2.826-3.386-6.567-3.386-11.224
		c0-4.656,1.199-8.51,3.6-11.56c2.398-3.05,5.855-4.575,10.369-4.575c2.236,0,4.158,0.417,5.765,1.25
		c1.606,0.834,2.837,1.963,3.69,3.386c1.626,2.766,2.44,5.958,2.44,9.577c0,1.708-0.082,2.644-0.244,2.806
		c-0.163,0.163-0.468,0.244-0.915,0.244h-17.934c0.203,2.928,0.924,5.195,2.165,6.802c1.24,1.607,3.386,2.409,6.436,2.409
		c2.236,0,4.534-0.528,6.894-1.586c0.568-0.284,0.976-0.122,1.22,0.488l1.159,2.806c0.203,0.488,0.02,0.895-0.549,1.22
		C253.328,45.506,249.974,46.238,245.947,46.238z M238.688,27.389h12.688c0.081-5.083-1.912-7.625-5.978-7.625
		c-2.4,0-4.098,0.763-5.094,2.288C239.308,23.576,238.77,25.356,238.688,27.389z"/>
	<path style="fill:#FFFFFF;" d="M268.699,30.012c0,7.402,2.867,11.102,8.602,11.102c1.829,0,3.965-0.549,6.404-1.647
		c0.61-0.244,1.037-0.061,1.281,0.549l1.098,2.684c0.203,0.57,0.04,0.997-0.487,1.281c-2.481,1.505-5.612,2.257-9.395,2.257
		c-4.921,0-8.561-1.393-10.919-4.178c-2.358-2.785-3.538-6.567-3.538-11.346c0-4.778,1.21-8.651,3.63-11.621
		c2.419-2.968,6.028-4.453,10.827-4.453c3.66,0,6.364,0.997,8.113,2.989c1.748,1.993,2.623,4.535,2.623,7.625
		c0,0.529-0.346,0.793-1.037,0.793h-3.66c-0.65,0-0.997-0.305-1.037-0.915c-0.204-3.578-2.013-5.368-5.429-5.368
		c-2.44,0-4.23,0.845-5.368,2.532C269.269,23.983,268.699,26.556,268.699,30.012z"/>
	<path style="fill:#FFFFFF;" d="M289.378,4.087V0.915c0-0.61,0.306-0.915,0.915-0.915h9.211c0.61,0,0.915,0.305,0.915,0.915v18.788
		c2.277-3.375,5.43-5.063,9.455-5.063c6.303,0,9.455,3.457,9.455,10.37v15.677h3.599c0.61,0,0.915,0.305,0.915,0.915v2.989
		c0,0.61-0.305,0.915-0.915,0.915h-13.358c-0.61,0-0.915-0.305-0.915-0.915v-2.989c0-0.61,0.305-0.915,0.915-0.915h2.928V28.06
		c0-2.562-0.326-4.432-0.976-5.612c-0.651-1.179-1.993-1.769-4.026-1.769c-2.034,0-3.721,0.61-5.062,1.83
		c-1.343,1.22-2.014,2.603-2.014,4.148v14.03h3.722c0.609,0,0.915,0.305,0.915,0.915v2.989c0,0.61-0.306,0.915-0.915,0.915h-13.848
		c-0.609,0-0.915-0.305-0.915-0.915v-2.989c0-0.61,0.306-0.915,0.915-0.915h3.294V5.002h-3.294
		C289.684,5.002,289.378,4.697,289.378,4.087z"/>
	<path style="fill:#FFFFFF;" d="M326.223,19.459v-3.233c0-0.61,0.305-0.915,0.915-0.915h8.296c0.527,0,0.854,0.305,0.976,0.915
		l0.549,3.538c2.277-3.416,5.53-5.124,9.761-5.124c6.303,0,9.454,3.457,9.454,10.37v15.677h3.538c0.61,0,0.915,0.305,0.915,0.915
		v2.989c0,0.61-0.305,0.915-0.915,0.915h-13.298c-0.609,0-0.915-0.305-0.915-0.915v-2.989c0-0.61,0.306-0.915,0.915-0.915h2.928
		V28.06c0-2.562-0.325-4.432-0.976-5.612c-0.651-1.179-1.993-1.769-4.026-1.769s-3.721,0.61-5.062,1.83
		c-1.342,1.22-2.013,2.603-2.013,4.148v14.03h3.781c0.61,0,0.915,0.305,0.915,0.915v2.989c0,0.61-0.305,0.915-0.915,0.915h-13.847
		c-0.61,0-0.915-0.305-0.915-0.915v-2.989c0-0.61,0.305-0.915,0.915-0.915h3.233V20.313h-3.294
		C326.527,20.313,326.223,20.029,326.223,19.459z"/>
	<path style="fill:#FFFFFF;" d="M363.675,30.866c0-3.05,0.467-5.693,1.403-7.93c0.935-2.236,2.155-3.924,3.66-5.063
		c2.887-2.155,6.018-3.233,9.394-3.233c2.48,0,4.575,0.387,6.283,1.159c1.708,0.773,3.039,1.668,3.995,2.684
		c0.955,1.017,1.77,2.481,2.44,4.392c0.671,1.912,1.007,4.148,1.007,6.71c0,5.45-1.373,9.587-4.118,12.414
		c-2.745,2.827-6.252,4.239-10.522,4.239c-4.27,0-7.595-1.291-9.974-3.874C364.864,39.782,363.675,35.95,363.675,30.866z
		 M377.705,41.236c2.44,0,4.219-0.904,5.338-2.714c1.117-1.809,1.677-4.503,1.677-8.083c0-3.578-0.56-6.272-1.677-8.083
		c-1.119-1.809-2.938-2.714-5.46-2.714c-4.677,0-7.015,3.294-7.015,9.882C370.568,37.332,372.947,41.236,377.705,41.236z"/>
	<path style="fill:#FFFFFF;" d="M406.559,0.915v39.772h3.843c0.609,0,0.915,0.305,0.915,0.915v2.989c0,0.61-0.306,0.915-0.915,0.915
		h-14.519c-0.609,0-0.915-0.305-0.915-0.915v-2.989c0-0.61,0.306-0.915,0.915-0.915h3.844V5.002h-3.294
		c-0.61,0-0.915-0.305-0.915-0.915V0.915c0-0.61,0.305-0.915,0.915-0.915h9.211C406.253,0,406.559,0.305,406.559,0.915z"/>
	<path style="fill:#FFFFFF;" d="M414.061,30.866c0-3.05,0.467-5.693,1.403-7.93c0.935-2.236,2.155-3.924,3.66-5.063
		c2.887-2.155,6.018-3.233,9.394-3.233c2.48,0,4.575,0.387,6.283,1.159c1.708,0.773,3.039,1.668,3.995,2.684
		c0.955,1.017,1.77,2.481,2.44,4.392c0.671,1.912,1.007,4.148,1.007,6.71c0,5.45-1.373,9.587-4.118,12.414
		c-2.745,2.827-6.252,4.239-10.522,4.239c-4.27,0-7.595-1.291-9.974-3.874C415.25,39.782,414.061,35.95,414.061,30.866z
		 M428.091,41.236c2.44,0,4.219-0.904,5.338-2.714c1.117-1.809,1.677-4.503,1.677-8.083c0-3.578-0.56-6.272-1.677-8.083
		c-1.119-1.809-2.938-2.714-5.46-2.714c-4.677,0-7.015,3.294-7.015,9.882C420.954,37.332,423.333,41.236,428.091,41.236z"/>
	<path style="fill:#FFFFFF;" d="M474.267,20.313v21.655c0,2.603-0.102,5.022-0.305,7.259c-0.326,3.456-1.597,6.14-3.812,8.052
		c-2.217,1.911-5.358,2.867-9.425,2.867s-7.482-0.61-10.248-1.83c-0.487-0.204-0.65-0.61-0.487-1.22l1.098-3.233
		c0.162-0.57,0.569-0.732,1.22-0.488c2.48,1.016,4.992,1.525,7.534,1.525c2.541,0,4.442-0.61,5.703-1.83
		c1.26-1.22,1.891-3.376,1.891-6.466v-4.758c-1.79,2.928-4.677,4.392-8.661,4.392c-3.986,0-7.026-1.281-9.12-3.843
		c-2.095-2.562-3.142-6.456-3.142-11.682c0-5.225,1.229-9.211,3.69-11.956c2.46-2.745,5.552-4.118,9.272-4.118
		s6.72,1.322,8.997,3.965l0.61-2.379c0.203-0.61,0.569-0.915,1.098-0.915h7.442c0.61,0,0.915,0.305,0.915,0.915v3.172
		c0,0.61-0.305,0.915-0.915,0.915H474.267z M467.435,34.099V23.241c-0.163-0.244-0.417-0.549-0.762-0.915
		c-0.347-0.366-1.099-0.843-2.258-1.433c-1.158-0.589-2.409-0.885-3.751-0.885c-2.156,0-3.904,0.804-5.246,2.41
		c-1.342,1.607-2.013,4.178-2.013,7.716s0.487,6.232,1.464,8.083c0.976,1.851,2.867,2.775,5.673,2.775
		c1.789,0,3.386-0.63,4.788-1.891C466.733,37.841,467.435,36.173,467.435,34.099z"/>
	<path style="fill:#FFFFFF;" d="M489.212,16.165l7.137,22.204l6.344-18.056h-3.111c-0.609,0-0.915-0.305-0.915-0.915v-3.172
		c0-0.61,0.306-0.915,0.915-0.915h8.906c0.488,0,0.813,0.143,0.977,0.427c0.162,0.285,0.243,0.54,0.243,0.763
		c0,0.224-0.041,0.438-0.121,0.64L496.531,51.24c-0.609,1.545-1.128,2.735-1.556,3.569c-0.427,0.833-1.027,1.717-1.799,2.653
		c-1.505,1.789-3.722,2.684-6.649,2.684s-5.328-0.448-7.198-1.342c-0.324-0.163-0.487-0.366-0.487-0.61s0.021-0.427,0.061-0.549
		l1.037-2.989c0.162-0.529,0.549-0.712,1.159-0.549c1.952,0.65,3.548,0.976,4.788,0.976s2.196-0.315,2.867-0.946
		c0.671-0.631,1.373-1.942,2.104-3.935l1.525-4.026l-9.272-25.864h-3.05c-0.61,0-0.915-0.305-0.915-0.915v-3.172
		c0-0.61,0.305-0.915,0.915-0.915h7.991C488.662,15.311,489.049,15.596,489.212,16.165z"/>
	<path style="fill:#FFFFFF;" d="M536.426,9.028v12.566h18.483V9.028h-3.233c-0.61,0-0.915-0.305-0.915-0.915V5.002
		c0-0.61,0.305-0.915,0.915-0.915h13.298c0.61,0,0.915,0.305,0.915,0.915v3.111c0,0.61-0.305,0.915-0.915,0.915h-3.232v31.659h3.232
		c0.61,0,0.915,0.305,0.915,0.915v2.989c0,0.61-0.305,0.915-0.915,0.915h-13.298c-0.61,0-0.915-0.305-0.915-0.915v-2.989
		c0-0.61,0.305-0.915,0.915-0.915h3.233V26.84h-18.483v13.847h3.233c0.609,0,0.915,0.305,0.915,0.915v2.989
		c0,0.61-0.306,0.915-0.915,0.915h-13.298c-0.61,0-0.915-0.305-0.915-0.915v-2.989c0-0.61,0.305-0.915,0.915-0.915h3.232V9.028
		h-3.232c-0.61,0-0.915-0.305-0.915-0.915V5.002c0-0.61,0.305-0.915,0.915-0.915h13.298c0.609,0,0.915,0.305,0.915,0.915v3.111
		c0,0.61-0.306,0.915-0.915,0.915H536.426z"/>
	<path style="fill:#FFFFFF;" d="M599.438,40.687h2.684c0.61,0,0.915,0.305,0.915,0.915v2.989c0,0.61-0.305,0.915-0.915,0.915h-6.832
		c-0.488,0-0.793-0.305-0.915-0.915l-0.549-3.416c-2.604,3.376-6.019,5.063-10.248,5.063c-6.588,0-9.882-3.456-9.882-10.37V20.313
		h-3.233c-0.609,0-0.915-0.305-0.915-0.915v-3.172c0-0.61,0.306-0.915,0.915-0.915h9.15c0.609,0,0.915,0.305,0.915,0.915v17.812
		c0,2.44,0.314,4.178,0.945,5.215c0.63,1.037,1.972,1.556,4.026,1.556c2.053,0,3.751-0.61,5.093-1.83
		c1.343-1.22,2.014-2.602,2.014-4.148V20.313h-3.844c-0.609,0-0.915-0.305-0.915-0.915v-3.172c0-0.61,0.306-0.915,0.915-0.915h9.761
		c0.609,0,0.915,0.305,0.915,0.915V40.687z"/>
	<path style="fill:#FFFFFF;" d="M610.296,40.687V5.063h-3.294c-0.609,0-0.915-0.305-0.915-0.915V0.915
		c0-0.61,0.306-0.915,0.915-0.915h9.211c0.61,0,0.915,0.305,0.915,0.915v18.971c0.977-1.626,2.288-2.907,3.935-3.843
		c1.647-0.935,3.426-1.403,5.338-1.403c3.741,0,6.669,1.241,8.784,3.721c2.113,2.481,3.172,6.354,3.172,11.621
		c0,5.267-1.211,9.293-3.63,12.078c-2.42,2.786-5.603,4.178-9.546,4.178c-2.237,0-4.179-0.396-5.826-1.189
		c-1.646-0.793-2.836-1.778-3.568-2.958l-0.366,2.501c-0.041,0.61-0.346,0.915-0.915,0.915h-7.441c-0.61,0-0.915-0.305-0.915-0.915
		v-2.989c0-0.61,0.305-0.915,0.915-0.915H610.296z M617.128,27.084v10.797c0.488,0.732,1.434,1.444,2.837,2.135
		c1.403,0.692,2.775,1.037,4.117,1.037c4.92,0,7.381-3.477,7.381-10.431c0-5.042-1.139-8.214-3.416-9.516
		c-0.976-0.569-2.317-0.854-4.025-0.854s-3.285,0.621-4.728,1.86C617.85,23.354,617.128,25.01,617.128,27.084z"/>
</g>
</svg>
